<svg width="169" height="78" viewBox="0 0 169 78" fill="none" xmlns="http://www.w3.org/2000/svg">
  <rect width="169" height="78" fill="#E6E6E6" />
  <path fill-rule="evenodd" clip-rule="evenodd"
    d="M27 29C27 25.6863 29.6863 23 33 23L53 23C56.3137 23 59 25.6863 59 29L59 49C59 52.3137 56.3137 55 53 55L33 55C29.6863 55 27 52.3137 27 49L27 29ZM45.4 34.2L52.2019 27.8L54.2 29.6801L49.3962 34.2L54.2 38.72L52.2019 40.6L45.4 34.2ZM65 27.4427L65 50.6838L69.4119 50.6838L69.4119 41.6087L74.652 41.6087L79.1843 50.6838L84.0769 50.6838L79.0698 40.8777C80.2692 40.3724 81.2571 39.6266 82.0194 38.6378C82.9137 37.478 83.3526 36.1035 83.3526 34.5415C83.3526 33.1474 83.0186 31.9055 82.3313 30.8368C81.67 29.755 80.7356 28.9172 79.5441 28.3255C78.3665 27.7303 77.0039 27.4427 75.4735 27.4427L65 27.4427ZM75.2234 31.4585C76.4125 31.4585 77.2981 31.7667 77.9415 32.3297L77.9471 32.3345C78.6066 32.8963 78.9407 33.625 78.9407 34.5731C78.9407 35.5704 78.6016 36.3171 77.9476 36.8745C77.3044 37.4194 76.4166 37.7194 75.2234 37.7194L69.4119 37.7194L69.4119 31.4585L75.2234 31.4585ZM87.9319 49.7823L87.9354 49.7843C89.2988 50.5757 90.8163 50.9684 92.4744 50.9684C93.7169 50.9684 94.865 50.7919 95.9125 50.4312L95.9192 50.4288C96.9808 50.0484 98.0008 49.4808 98.9796 48.7327L99.4791 48.3509L96.6373 45.5209L96.2346 45.9107C95.8235 46.3085 95.2953 46.6265 94.6348 46.8562C93.9874 47.0675 93.3098 47.1739 92.5994 47.1739C91.7942 47.1739 91.0528 46.9951 90.3664 46.6391C89.6965 46.2809 89.1384 45.7925 88.6886 45.1681C88.3769 44.7146 88.1367 44.2142 87.9696 43.664L100.354 43.664L100.354 42.2253C100.354 40.5453 99.9927 39.0224 99.2583 37.6696C98.5512 36.3077 97.5825 35.2224 96.3511 34.4289C95.1057 33.6051 93.6821 33.1976 92.0993 33.1976C90.5164 33.1976 89.067 33.605 87.7653 34.4216C86.4736 35.2108 85.4499 36.2822 84.6972 37.6254C83.9386 38.9576 83.5638 40.4424 83.5638 42.0672C83.5638 43.7152 83.9501 45.2225 84.7308 46.5765L84.7343 46.5823C85.531 47.9257 86.5982 48.9953 87.9319 49.7823ZM96.6941 40.7391C96.666 40.5493 96.6294 40.3649 96.5844 40.1858C96.4293 39.5691 96.1742 39.0158 95.8189 38.5257C95.3813 37.8722 94.8291 37.3663 94.1623 37.0079C93.5163 36.6285 92.8078 36.4387 92.0368 36.4387C91.245 36.4387 90.5156 36.6179 89.8488 36.9763C89.182 37.3347 88.6194 37.8406 88.1609 38.4941C87.8195 38.9874 87.5669 39.5513 87.4031 40.1858C87.3569 40.3646 87.3178 40.5491 87.2857 40.7391L96.6941 40.7391ZM102.201 33.4822L102.201 50.6838L106.456 50.6838L106.456 33.4822L102.201 33.4822ZM102.568 31.2476L102.573 31.2531L102.579 31.2584C103.056 31.7413 103.649 31.996 104.328 31.996C105.022 31.996 105.628 31.7461 106.11 31.2584L106.115 31.2531L106.12 31.2476C106.587 30.7485 106.831 30.1524 106.831 29.4822C106.831 28.7989 106.592 28.2012 106.104 27.7319C105.623 27.248 105.02 27 104.328 27C103.651 27 103.06 27.2528 102.584 27.732C102.096 28.2013 101.857 28.799 101.857 29.4822C101.857 30.1524 102.101 30.7485 102.568 31.2476ZM109.008 33.4822L109.008 50.6838L113.263 50.6838L113.263 38.7231C113.638 38.1867 114.092 37.7804 114.627 37.493C115.202 37.1836 115.858 37.0237 116.605 37.0237C117.736 37.0237 118.538 37.3525 119.095 37.9502L119.101 37.9562L119.106 37.962C119.688 38.5498 120.01 39.388 120.01 40.5494L120.01 50.6838L124.266 50.6838L124.266 40.0119C124.266 38.6891 123.977 37.4987 123.383 36.4572C122.814 35.4221 122.012 34.6099 120.984 34.0314C119.968 33.448 118.794 33.166 117.481 33.166C115.856 33.166 114.443 33.5888 113.263 34.4406L113.263 33.4822L109.008 33.4822ZM128.709 50.3661L128.715 50.3681L128.72 50.37C129.992 50.7913 131.345 51 132.777 51C134.116 51 135.333 50.7666 136.417 50.2869C137.492 49.8111 138.364 49.1556 139.011 48.3131L139.016 48.3073C139.67 47.4322 140 46.4427 140 45.3557C140 43.966 139.548 42.8082 138.603 41.9484C137.677 41.0855 136.355 40.5599 134.705 40.3183L131.827 39.907L131.823 39.9064C130.929 39.7858 130.374 39.5852 130.073 39.3626C129.827 39.1473 129.685 38.8484 129.685 38.3992C129.685 37.9402 129.875 37.5766 130.32 37.2713L130.325 37.2675L130.331 37.2635C130.79 36.9316 131.432 36.7391 132.308 36.7391C133.077 36.7391 133.838 36.8653 134.594 37.1201L134.598 37.1214C135.372 37.3761 136.18 37.7822 137.02 38.349L137.468 38.6508L139.726 35.6945L139.273 35.363C138.249 34.6134 137.173 34.0566 136.046 33.6989C134.925 33.3433 133.762 33.166 132.558 33.166C131.246 33.166 130.07 33.387 129.046 33.8467C128.027 34.2828 127.213 34.9122 126.626 35.7413C126.032 36.5607 125.742 37.5178 125.742 38.5889C125.742 39.9759 126.181 41.1397 127.1 42.02C128.007 42.8894 129.324 43.4162 130.975 43.658L133.851 44.0692C134.683 44.1894 135.21 44.3998 135.512 44.644C135.783 44.8632 135.932 45.1621 135.932 45.6087C135.932 46.1057 135.705 46.5225 135.13 46.8813C134.539 47.2511 133.737 47.4585 132.684 47.4585C131.864 47.4585 131.051 47.3052 130.241 46.994C129.445 46.6589 128.659 46.183 127.885 45.5604L127.444 45.2063L125.028 48.139L125.432 48.4894C126.365 49.2982 127.46 49.9227 128.709 50.3661Z"
    fill="#254DEF" />
</svg>