<svg width="169" height="78" viewBox="0 0 169 78" fill="none" xmlns="http://www.w3.org/2000/svg">
  <rect width="169" height="78" fill="#111111" />
  <path fill-rule="evenodd" clip-rule="evenodd"
    d="M28 29C28 25.6863 30.6863 23 34 23L54 23C57.3137 23 60 25.6863 60 29L60 49C60 52.3137 57.3137 55 54 55L34 55C30.6863 55 28 52.3137 28 49L28 29ZM46.4 34.2L53.2019 27.8L55.2 29.6801L50.3962 34.2L55.2 38.72L53.2019 40.6L46.4 34.2ZM66 27.4427L66 50.6838L70.4119 50.6838L70.4119 41.6087L75.652 41.6087L80.1843 50.6838L85.0769 50.6838L80.0698 40.8777C81.2692 40.3724 82.2571 39.6266 83.0194 38.6378C83.9137 37.478 84.3526 36.1035 84.3526 34.5415C84.3526 33.1474 84.0186 31.9055 83.3313 30.8368C82.67 29.755 81.7356 28.9172 80.5441 28.3255C79.3665 27.7303 78.0039 27.4427 76.4735 27.4427L66 27.4427ZM76.2234 31.4585C77.4125 31.4585 78.2981 31.7667 78.9415 32.3297L78.9471 32.3345C79.6066 32.8963 79.9407 33.625 79.9407 34.5731C79.9407 35.5704 79.6016 36.3171 78.9476 36.8745C78.3044 37.4194 77.4166 37.7194 76.2234 37.7194L70.4119 37.7194L70.4119 31.4585L76.2234 31.4585ZM88.9319 49.7823L88.9354 49.7843C90.2988 50.5757 91.8163 50.9684 93.4744 50.9684C94.7169 50.9684 95.865 50.7919 96.9125 50.4312L96.9192 50.4288C97.9808 50.0484 99.0008 49.4808 99.9796 48.7327L100.479 48.3509L97.6373 45.5209L97.2346 45.9107C96.8235 46.3085 96.2953 46.6265 95.6348 46.8562C94.9874 47.0675 94.3098 47.1739 93.5994 47.1739C92.7942 47.1739 92.0528 46.9951 91.3664 46.6391C90.6965 46.2809 90.1384 45.7925 89.6886 45.1681C89.3769 44.7146 89.1367 44.2142 88.9696 43.664L101.354 43.664L101.354 42.2253C101.354 40.5453 100.993 39.0224 100.258 37.6696C99.5512 36.3077 98.5825 35.2224 97.3511 34.4289C96.1057 33.6051 94.6821 33.1976 93.0993 33.1976C91.5164 33.1976 90.067 33.605 88.7653 34.4216C87.4736 35.2108 86.4499 36.2822 85.6972 37.6254C84.9386 38.9576 84.5638 40.4424 84.5638 42.0672C84.5638 43.7152 84.9501 45.2225 85.7308 46.5765L85.7343 46.5823C86.531 47.9257 87.5982 48.9953 88.9319 49.7823ZM97.6941 40.7391C97.666 40.5493 97.6294 40.3649 97.5844 40.1858C97.4293 39.5691 97.1742 39.0158 96.8189 38.5257C96.3813 37.8722 95.8291 37.3663 95.1623 37.0079C94.5163 36.6285 93.8078 36.4387 93.0368 36.4387C92.245 36.4387 91.5156 36.6179 90.8488 36.9763C90.182 37.3347 89.6194 37.8406 89.1609 38.4941C88.8195 38.9874 88.5669 39.5513 88.4031 40.1858C88.3569 40.3646 88.3178 40.5491 88.2857 40.7391L97.6941 40.7391ZM103.201 33.4822L103.201 50.6838L107.456 50.6838L107.456 33.4822L103.201 33.4822ZM103.568 31.2476L103.573 31.2531L103.579 31.2584C104.056 31.7413 104.649 31.996 105.328 31.996C106.022 31.996 106.628 31.7461 107.11 31.2584L107.115 31.2531L107.12 31.2476C107.587 30.7485 107.831 30.1524 107.831 29.4822C107.831 28.7989 107.592 28.2012 107.104 27.7319C106.623 27.248 106.02 27 105.328 27C104.651 27 104.06 27.2528 103.584 27.732C103.096 28.2013 102.857 28.799 102.857 29.4822C102.857 30.1524 103.101 30.7485 103.568 31.2476ZM110.008 33.4822L110.008 50.6838L114.263 50.6838L114.263 38.7231C114.638 38.1867 115.092 37.7804 115.627 37.493C116.202 37.1836 116.858 37.0237 117.605 37.0237C118.736 37.0237 119.538 37.3525 120.095 37.9502L120.101 37.9562L120.106 37.962C120.688 38.5498 121.01 39.388 121.01 40.5494L121.01 50.6838L125.266 50.6838L125.266 40.0119C125.266 38.6891 124.977 37.4987 124.383 36.4572C123.814 35.4221 123.012 34.6099 121.984 34.0314C120.968 33.448 119.794 33.166 118.481 33.166C116.856 33.166 115.443 33.5888 114.263 34.4406L114.263 33.4822L110.008 33.4822ZM129.709 50.3661L129.715 50.3681L129.72 50.37C130.992 50.7913 132.345 51 133.777 51C135.116 51 136.333 50.7666 137.417 50.2869C138.492 49.8111 139.364 49.1556 140.011 48.3131L140.016 48.3073C140.67 47.4322 141 46.4427 141 45.3557C141 43.966 140.548 42.8082 139.603 41.9484C138.677 41.0855 137.355 40.5599 135.705 40.3183L132.827 39.907L132.823 39.9064C131.929 39.7858 131.374 39.5852 131.073 39.3626C130.827 39.1473 130.685 38.8484 130.685 38.3992C130.685 37.9402 130.875 37.5766 131.32 37.2713L131.325 37.2675L131.331 37.2635C131.79 36.9316 132.432 36.7391 133.308 36.7391C134.077 36.7391 134.838 36.8653 135.594 37.1201L135.598 37.1214C136.372 37.3761 137.18 37.7822 138.02 38.349L138.468 38.6508L140.726 35.6945L140.273 35.363C139.249 34.6134 138.173 34.0566 137.046 33.6989C135.925 33.3433 134.762 33.166 133.558 33.166C132.246 33.166 131.07 33.387 130.046 33.8467C129.027 34.2828 128.213 34.9122 127.626 35.7413C127.032 36.5607 126.742 37.5178 126.742 38.5889C126.742 39.9759 127.181 41.1397 128.1 42.02C129.007 42.8894 130.324 43.4162 131.975 43.658L134.851 44.0692C135.683 44.1894 136.21 44.3998 136.512 44.644C136.783 44.8632 136.932 45.1621 136.932 45.6087C136.932 46.1057 136.705 46.5225 136.13 46.8813C135.539 47.2511 134.737 47.4585 133.684 47.4585C132.864 47.4585 132.051 47.3052 131.241 46.994C130.445 46.6589 129.659 46.183 128.885 45.5604L128.444 45.2063L126.028 48.139L126.432 48.4894C127.365 49.2982 128.46 49.9227 129.709 50.3661Z"
    fill="white" />
</svg>